<?xml version="1.0" encoding="UTF-8"?>
<svg viewBox="0 0 1300 1660" xmlns="http://www.w3.org/2000/svg" font-family="-apple-system,Segoe UI,Roboto,Helvetica,Arial,sans-serif" role="img" aria-labelledby="ti td">
<title id="ti">PTZ 单目标跟踪算法全流程拓扑图</title>
<desc id="td">从图像输入、检测与模型推理、相机运动补偿、候选收集，到匹配流程内部的逐候选打分、动态融合权重、多重否决门控、人脸识别硬覆盖、质量监控、身份复核门、画廊维护与状态更新，再到结果输出与丢失兜底阶梯。</desc>
<defs>
<marker id="a" markerWidth="10" markerHeight="10" refX="7.5" refY="3" orient="auto" markerUnits="userSpaceOnUse"><path d="M0,0 L7.5,3 L0,6 z" fill="var(--line)"/></marker>
<marker id="ad" markerWidth="10" markerHeight="10" refX="7.5" refY="3" orient="auto" markerUnits="userSpaceOnUse"><path d="M0,0 L7.5,3 L0,6 z" fill="var(--loss-line)"/></marker>
<style>
svg{ --line:var(--color-text-secondary,#6b7480); --loss-line:var(--color-text-info,#3a6ea5);
 --ink:var(--color-text-primary,#16181d); --sub:var(--color-text-secondary,#5d6670);
 --bd:var(--color-border-secondary,#c4ccd6); --cont:var(--color-background-secondary,#f6f8fb);
 --page:var(--color-background-primary,#ffffff);
 --stage:#eef2f7; --model:#e9ddff; --modelbd:#b9a4ee; --sig:#e2eefb; --veto:#fde3e1; --gate:#fcefd0;
 --upd:#e1f3e7; --loss:#e8eaf4; --out:#d6efe6;}
@media (prefers-color-scheme:dark){ svg{ --stage:#2a2f37; --model:#39306a; --modelbd:#6a5cb0; --sig:#22364a;
 --veto:#4a2b29; --gate:#4a3b20; --upd:#23492f; --loss:#2c2f3e; --out:#1f4a3e; --cont:#1b1f25;}}
.h{font-weight:700;fill:var(--ink);} .h2{font-weight:700;fill:var(--ink);}
.s{fill:var(--sub);} .c{font-family:ui-monospace,Menlo,Consolas,monospace;fill:var(--sub);}
.cw{font-family:ui-monospace,Menlo,Consolas,monospace;fill:var(--ink);font-weight:600;}
.box{stroke:var(--bd);stroke-width:1;}
</style>
</defs>

<rect x="0" y="0" width="1300" height="1660" fill="var(--page)"/>

<text x="40" y="34" font-size="22" class="h">PTZ 单目标跟踪算法 · 全流程拓扑</text>
<text x="40" y="55" font-size="12.5" class="s">每帧 update(img, mainBox) 执行流；匹配流程（match_main_target_unified）内部子模块完整展开</text>

<!-- legend -->
<g font-size="11">
<rect x="763" y="20" width="13" height="13" rx="3" fill="var(--model)" class="box"/><text x="781" y="31" class="s">模型推理(NPU)</text>
<rect x="881" y="20" width="13" height="13" rx="3" fill="var(--sig)" class="box"/><text x="899" y="31" class="s">打分信号</text>
<rect x="965" y="20" width="13" height="13" rx="3" fill="var(--veto)" class="box"/><text x="983" y="31" class="s">否决</text>
<rect x="1025" y="20" width="13" height="13" rx="3" fill="var(--gate)" class="box"/><text x="1043" y="31" class="s">门控</text>
<rect x="1085" y="20" width="13" height="13" rx="3" fill="var(--upd)" class="box"/><text x="1103" y="31" class="s">更新/输出</text>
<rect x="1183" y="20" width="13" height="13" rx="3" fill="var(--loss)" class="box"/><text x="1201" y="31" class="s">丢失兜底</text>
</g>

<!-- spine arrows -->
<g stroke="var(--line)" stroke-width="1.7" fill="none">
<line x1="480" y1="120" x2="480" y2="138" marker-end="url(#a)"/>
<line x1="480" y1="206" x2="480" y2="224" marker-end="url(#a)"/>
<line x1="480" y1="300" x2="480" y2="318" marker-end="url(#a)"/>
<line x1="480" y1="392" x2="480" y2="410" marker-end="url(#a)"/>
<line x1="480" y1="1342" x2="480" y2="1360" marker-end="url(#a)"/>
<line x1="480" y1="1438" x2="480" y2="1456" marker-end="url(#a)"/>
</g>

<!-- 1. input -->
<rect x="110" y="74" width="740" height="46" rx="9" fill="var(--stage)" class="box"/>
<text x="130" y="93" font-size="15" class="h">① 图像输入</text>
<text x="130" y="111" font-size="11.5" class="s">BGR/YUV 帧 + 可选框选。<tspan class="c">mainBox.area()&gt;0</tspan> → <tspan class="cw">setMainTarget</tspan>(注册 emb/anchor画廊/骨骼/头KF/人脸) → 返回；否则跟踪帧。断流&gt;3s 自动 reset。</text>

<!-- 2. detect -->
<rect x="110" y="138" width="740" height="68" rx="9" fill="var(--stage)" class="box"/>
<text x="130" y="158" font-size="15" class="h">② 检测与分组</text>
<g font-size="11">
<rect x="130" y="168" width="225" height="30" rx="6" fill="var(--model)" stroke="var(--modelbd)"/><text x="142" y="182" class="h2" font-size="11.5">detector.run · YOLOv8</text><text x="142" y="194" class="s">人脸/人体/头 一体</text>
<rect x="368" y="168" width="225" height="30" rx="6" fill="var(--stage)" class="box"/><text x="380" y="182" class="cw" font-size="11">matchPersonFaces</text><text x="380" y="194" class="s">脸/头→体；独立头</text>
<rect x="606" y="168" width="224" height="30" rx="6" fill="var(--stage)" class="box"/><text x="618" y="182" class="cw" font-size="11">extract_detections</text><text x="618" y="194" class="s">高/低分组</text>
</g>

<!-- 3. predict + GMC -->
<rect x="110" y="224" width="740" height="76" rx="9" fill="var(--stage)" class="box"/>
<text x="130" y="244" font-size="15" class="h">③ 预测 &amp; 相机运动补偿(GMC)</text>
<g font-size="11">
<rect x="130" y="254" width="225" height="38" rx="6" fill="var(--stage)" class="box"/><text x="142" y="268" class="cw" font-size="11">get_predicted_tracks</text><text x="142" y="282" class="s">人体 KF + 头部 KF 预测</text>
<rect x="368" y="254" width="225" height="38" rx="6" fill="var(--stage)" class="box"/><text x="380" y="268" class="cw" font-size="11">estimate_camera_motion</text><text x="380" y="282" class="s">灰度→缩放→角点→LK→仿射 (OpenCV / IVE)</text>
<rect x="606" y="254" width="224" height="38" rx="6" fill="var(--stage)" class="box"/><text x="618" y="268" class="h2" font-size="11">状态补偿 warp</text><text x="618" y="282" class="s">框/平滑中心/引导中心/头/预测器</text>
</g>

<!-- 4. proximity -->
<rect x="110" y="318" width="740" height="74" rx="9" fill="var(--stage)" class="box"/>
<text x="130" y="338" font-size="15" class="h">④ 候选收集 <tspan class="c" font-size="11">collect_nearby_dets</tspan></text>
<g font-size="10.5">
<rect x="130" y="348" width="168" height="36" rx="6" fill="var(--stage)" class="box"/><text x="139" y="362" class="h2" font-size="10.5">双半径搜索门</text><text x="139" y="375" class="s">close / match(随丢失扩大)</text>
<rect x="310" y="348" width="168" height="36" rx="6" fill="var(--stage)" class="box"/><text x="319" y="362" class="h2" font-size="10.5">lead 引导中心</text><text x="319" y="375" class="s">丢失期门移向外推点</text>
<rect x="490" y="348" width="168" height="36" rx="6" fill="var(--stage)" class="box"/><text x="499" y="362" class="h2" font-size="10.5">overlap / close 计数</text><text x="499" y="375" class="s">驱动遮挡状态机</text>
<rect x="670" y="348" width="160" height="36" rx="6" fill="var(--stage)" class="box"/><text x="679" y="362" class="h2" font-size="10.5">top-5 候选</text><text x="679" y="375" class="s">送入匹配</text>
</g>

<!-- 5. MATCHING container -->
<rect x="70" y="410" width="820" height="932" rx="12" fill="var(--cont)" stroke="var(--bd)" stroke-width="1.5"/>
<text x="90" y="436" font-size="16" class="h">⑤ 匹配流程 <tspan class="c" font-size="12">match_main_target_unified</tspan></text>
<text x="90" y="453" font-size="11" class="s">对 ≤5 候选评分 → 选最佳主目标检测；宁可不匹配也不匹配错</text>

<!-- 5a/5b state -->
<g font-size="11">
<rect x="90" y="464" width="385" height="58" rx="7" fill="var(--stage)" class="box"/><text x="102" y="481" class="h2">遮挡状态机 FSM</text><text x="102" y="497" class="s">CLEAR ⇄ OCCLUDED ⇄ RECOVERING</text><text x="102" y="512" class="s">overlap≥2 触发；退出需主目标近期可见 → <tspan class="cw" font-size="10">in_danger</tspan></text>
<rect x="485" y="464" width="385" height="58" rx="7" fill="var(--stage)" class="box"/><text x="497" y="481" class="h2">可见度评估 assess_visibility</text><text x="497" y="497" class="s">FULL · MOSTLY · HALF · UPPER · HEAD_ONLY</text><text x="497" y="512" class="s">姿态关键点深度 + EMA + 迟滞 → 信号重加权</text>
</g>
<line x1="480" y1="522" x2="480" y2="536" stroke="var(--line)" stroke-width="1.5" marker-end="url(#a)"/>

<!-- 5c signals -->
<rect x="90" y="536" width="780" height="118" rx="7" fill="var(--sig)" class="box"/>
<text x="102" y="554" font-size="12.5" class="h2">PASS 1 · 逐候选 8 信号</text>
<g font-size="10.5">
<rect x="102" y="562" width="183" height="38" rx="5" fill="var(--stage)" class="box"/><text x="111" y="576" class="cw" font-size="10.5">iou</text><text x="111" y="590" class="s">KF预测框∩检测</text>
<rect x="295" y="562" width="183" height="38" rx="5" fill="var(--model)" stroke="var(--modelbd)"/><text x="304" y="576" class="cw" font-size="10.5">reid_sim ·模型</text><text x="304" y="590" class="s">PCB/OSNet 逐候选</text>
<rect x="488" y="562" width="183" height="38" rx="5" fill="var(--stage)" class="box"/><text x="497" y="576" class="cw" font-size="10.5">anchor_sim</text><text x="497" y="590" class="s">锚点画廊取 max</text>
<rect x="681" y="562" width="178" height="38" rx="5" fill="var(--model)" stroke="var(--modelbd)"/><text x="690" y="576" class="cw" font-size="10.5">oks ·姿态</text><text x="690" y="590" class="s">关键点空间吻合</text>
<rect x="102" y="606" width="183" height="38" rx="5" fill="var(--stage)" class="box"/><text x="111" y="620" class="cw" font-size="10.5">body_shape</text><text x="111" y="634" class="s">骨骼比例(弱)</text>
<rect x="295" y="606" width="183" height="38" rx="5" fill="var(--stage)" class="box"/><text x="304" y="620" class="cw" font-size="10.5">center_prox</text><text x="304" y="634" class="s">PTZ 画面中心先验</text>
<rect x="488" y="606" width="183" height="38" rx="5" fill="var(--stage)" class="box"/><text x="497" y="620" class="cw" font-size="10.5">anti_occ</text><text x="497" y="634" class="s">远离遮挡者(排除)</text>
<rect x="681" y="606" width="178" height="38" rx="5" fill="var(--stage)" class="box"/><text x="690" y="620" class="cw" font-size="10.5">head_match</text><text x="690" y="634" class="s">头框标准化中心距</text>
</g>
<line x1="480" y1="654" x2="480" y2="668" stroke="var(--line)" stroke-width="1.5" marker-end="url(#a)"/>

<!-- 5d/5e fusion -->
<g font-size="11">
<rect x="90" y="668" width="250" height="56" rx="7" fill="var(--sig)" class="box"/><text x="102" y="685" class="h2">歧义检测</text><text x="102" y="701" class="s"><tspan class="cw" font-size="10">reid_ambiguous</tspan>：top2 接近</text><text x="102" y="716" class="s">→ 同衣，降外观权重</text>
<rect x="350" y="668" width="520" height="56" rx="7" fill="var(--sig)" class="box"/><text x="362" y="685" class="h2">PASS 2 · 动态融合权重 → total → 排序</text><text x="362" y="701" class="s">基础(按遮挡态) → 可见度重加权 → 歧义自适应 → 头部注入 → 归一(Σw=1)</text><text x="362" y="716" class="s">遮挡期 IoU 失效 → 倚重 anchor/anti_occ/head</text>
</g>
<line x1="480" y1="724" x2="480" y2="738" stroke="var(--line)" stroke-width="1.5" marker-end="url(#a)"/>

<!-- 5f vetoes -->
<rect x="90" y="738" width="780" height="120" rx="7" fill="var(--veto)" class="box"/>
<text x="102" y="756" font-size="12.5" class="h2">门控否决（按序，命中即跳过该候选）</text>
<g font-size="10.5">
<rect x="102" y="764" width="183" height="38" rx="5" fill="var(--stage)" class="box"/><text x="111" y="778" class="h2" font-size="10.5">单候选保护</text><text x="111" y="792" class="s">深遮挡仅1候选→拒</text>
<rect x="295" y="764" width="183" height="38" rx="5" fill="var(--stage)" class="box"/><text x="304" y="778" class="h2" font-size="10.5">anchor 硬否决</text><text x="304" y="792" class="s">身份底线(孤立放宽)</text>
<rect x="488" y="764" width="183" height="38" rx="5" fill="var(--stage)" class="box"/><text x="497" y="778" class="h2" font-size="10.5">头部否决</text><text x="497" y="792" class="s">危险期头位不符</text>
<rect x="681" y="764" width="178" height="38" rx="5" fill="var(--stage)" class="box"/><text x="690" y="778" class="h2" font-size="10.5">共存排除</text><text x="690" y="792" class="s">同帧共存者≠主</text>
<rect x="102" y="808" width="183" height="38" rx="5" fill="var(--stage)" class="box"/><text x="111" y="822" class="h2" font-size="10.5">M1 运动否决</text><text x="111" y="836" class="s">静止主≠移动候选</text>
<rect x="295" y="808" width="183" height="38" rx="5" fill="var(--stage)" class="box"/><text x="304" y="822" class="h2" font-size="10.5">同衣运动否决</text><text x="304" y="836" class="s">空间离群剔除</text>
<rect x="488" y="808" width="371" height="38" rx="5" fill="var(--stage)" class="box"/><text x="497" y="822" class="h2" font-size="10.5">歧义间隔 gap</text><text x="497" y="836" class="s">top1−top2 过近 → 整体拒绝（不猜）</text>
</g>
<line x1="480" y1="858" x2="480" y2="872" stroke="var(--line)" stroke-width="1.5" marker-end="url(#a)"/>

<!-- 5g face -->
<rect x="90" y="872" width="780" height="66" rx="7" fill="var(--model)" stroke="var(--modelbd)"/>
<text x="102" y="890" font-size="12.5" class="h2">⑥ 人脸识别（同衣场景唯一强判别）· 模型</text>
<text x="102" y="908" font-size="11" class="s"><tspan class="cw" font-size="10.5">need_face</tspan>(未匹配/危险/周期) → InsightFace 关键点+识别 → <tspan class="h2">硬覆盖</tspan>：人脸锁 + emb刷新(α0.7) + 入画廊 + 解警报</text>
<text x="102" y="925" font-size="11" class="s">疑惑期全画面人脸扫描（错锁后加速找回）；身份门对人脸天然豁免</text>
<line x1="480" y1="938" x2="480" y2="952" stroke="var(--line)" stroke-width="1.5" marker-end="url(#a)"/>

<!-- 5h quality -->
<rect x="90" y="952" width="780" height="52" rx="7" fill="var(--gate)" class="box"/>
<text x="102" y="970" font-size="12.5" class="h2">⑦ 质量监控 update_quality_monitor</text>
<text x="102" y="990" font-size="11" class="s">anchor 掉点 / emb 背离 / 趋势走低 → 嫌疑累计 → ID-switch 警报 → emb 回滚到 anchor（孤立视角变化豁免）</text>
<line x1="480" y1="1004" x2="480" y2="1018" stroke="var(--line)" stroke-width="1.5" marker-end="url(#a)"/>

<!-- 5i gates -->
<rect x="90" y="1018" width="780" height="74" rx="7" fill="var(--gate)" class="box"/>
<text x="102" y="1036" font-size="12.5" class="h2">⑧ 身份复核门（弱证据→延迟接受，继续 coast）</text>
<g font-size="10.5">
<rect x="102" y="1044" width="245" height="40" rx="5" fill="var(--stage)" class="box"/><text x="111" y="1058" class="h2" font-size="10.5">C-identity（长盲重捕）</text><text x="111" y="1073" class="s">盲跟久→需 人脸/高anchor/高reid</text>
<rect x="357" y="1044" width="245" height="40" rx="5" fill="var(--stage)" class="box"/><text x="366" y="1058" class="h2" font-size="10.5">teleport（瞬移）</text><text x="366" y="1073" class="s">中心跳变超预算→需强身份</text>
<rect x="612" y="1044" width="247" height="40" rx="5" fill="var(--stage)" class="box"/><text x="621" y="1058" class="h2" font-size="10.5">M2（头新鲜+低IoU）</text><text x="621" y="1073" class="s">须人脸否则延迟</text>
</g>
<line x1="480" y1="1092" x2="480" y2="1106" stroke="var(--line)" stroke-width="1.5" marker-end="url(#a)"/>

<!-- 5j gallery + boxcomplete -->
<g font-size="11">
<rect x="90" y="1106" width="385" height="50" rx="7" fill="var(--upd)" class="box"/><text x="102" y="1124" class="h2">画廊维护</text><text x="102" y="1140" class="s">人脸/高置信/新视角 入廊（自愈注册污染）</text>
<rect x="485" y="1106" width="385" height="50" rx="7" fill="var(--upd)" class="box"/><text x="497" y="1124" class="h2">部分遮挡框补全</text><text x="497" y="1140" class="s">半身框向下补到保持高 → 防云台误抬</text>
</g>
<line x1="480" y1="1156" x2="480" y2="1170" stroke="var(--line)" stroke-width="1.5" marker-end="url(#a)"/>

<!-- 5k update -->
<rect x="90" y="1170" width="780" height="158" rx="7" fill="var(--upd)" class="box"/>
<text x="102" y="1188" font-size="12.5" class="h2">⑨ 状态更新</text>
<g font-size="10.5">
<rect x="102" y="1196" width="245" height="56" rx="5" fill="var(--stage)" class="box"/><text x="111" y="1212" class="h2" font-size="10.5">头部 KF 更新</text><text x="111" y="1227" class="s">校正头KF + 学习</text><text x="111" y="1241" class="s">头→体几何</text>
<rect x="357" y="1196" width="245" height="56" rx="5" fill="var(--stage)" class="box"/><text x="366" y="1212" class="cw" font-size="10.5">update_trackers_unified</text><text x="366" y="1227" class="s">KF 校正；emb EMA(门控)</text><text x="366" y="1241" class="s">主目标 pose 更新</text>
<rect x="612" y="1196" width="247" height="56" rx="5" fill="var(--stage)" class="box"/><text x="621" y="1212" class="h2" font-size="10.5">次级轨迹</text><text x="621" y="1227" class="s">非主：纯 IoU 关联</text><text x="621" y="1241" class="s">共存计数 → id 2,3..</text>
</g>
<rect x="102" y="1258" width="757" height="30" rx="5" fill="var(--stage)" class="box"/><text x="111" y="1277" class="s" font-size="10.5">try_deferred_face_register（稳定且身份可信时升级人脸模板，质量达标后锁定） · <tspan class="cw" font-size="10">generate_final_results</tspan></text>
<text x="102" y="1312" font-size="10.5" class="s">命中: <tspan class="cw" font-size="10">on_matched</tspan> 喂预测器 + 复位引导中心 + coast_weight=1.0</text>

<!-- 6. output -->
<rect x="110" y="1360" width="740" height="78" rx="9" fill="var(--out)" class="box"/>
<text x="130" y="1380" font-size="15" class="h">⑩ 结果输出</text>
<g font-size="10.5">
<rect x="130" y="1390" width="225" height="38" rx="6" fill="var(--stage)" class="box"/><text x="139" y="1404" class="h2" font-size="10.5">主目标 id = 1</text><text x="139" y="1418" class="s">+ coast_weight 置信</text>
<rect x="368" y="1390" width="225" height="38" rx="6" fill="var(--stage)" class="box"/><text x="377" y="1404" class="h2" font-size="10.5">次级目标 id ≥ 2</text><text x="377" y="1418" class="s">辅助定位主目标</text>
<rect x="606" y="1390" width="224" height="38" rx="6" fill="var(--stage)" class="box"/><text x="615" y="1404" class="h2" font-size="10.5">其他检测 id ≥ 900</text><text x="615" y="1418" class="s">仅展示</text>
</g>

<!-- 7. PTZ -->
<rect x="110" y="1456" width="740" height="46" rx="9" fill="var(--stage)" class="box"/>
<text x="130" y="1475" font-size="15" class="h">⑪ 云台 PTZ 控制器（下游）</text>
<text x="130" y="1493" font-size="11" class="s">读主框 + coast_weight 对运动量加权；自带死区/低通。本算法只产出框，不直接控云台。</text>

<!-- LOSS LADDER (right) -->
<rect x="930" y="410" width="330" height="470" rx="12" fill="var(--loss)" stroke="var(--loss-line)" stroke-width="1.4" stroke-dasharray="5 4"/>
<text x="950" y="436" font-size="14.5" class="h">丢失兜底阶梯</text>
<text x="950" y="453" font-size="11" class="s">got_main=false / 无检测 时逐级降级</text>
<g stroke="var(--loss-line)" stroke-width="1.6" fill="none">
<line x1="1095" y1="520" x2="1095" y2="540" marker-end="url(#ad)"/>
<line x1="1095" y1="612" x2="1095" y2="632" marker-end="url(#ad)"/>
<line x1="1095" y1="724" x2="1095" y2="744" marker-end="url(#ad)"/>
</g>
<rect x="950" y="470" width="290" height="50" rx="8" fill="var(--stage)" class="box"/><text x="962" y="489" font-size="12" class="h2">① 未命中 / 无主框</text><text x="962" y="505" font-size="10.5" class="s">匹配被拒或检测缺失</text>
<rect x="950" y="540" width="290" height="72" rx="8" fill="var(--stage)" class="box"/><text x="962" y="559" font-size="12" class="h2">② 头部连续 <tspan class="c" font-size="10">try_head_continuity</tspan></text><text x="962" y="576" font-size="10.5" class="s">身体丢、独立头仍在头KF预测附近</text><text x="962" y="592" font-size="10.5" class="s">→ 头校正KF + 几何重建身体框</text><text x="962" y="607" font-size="10.5" class="s">维持跟踪(权重≈0.7)</text>
<rect x="950" y="632" width="290" height="92" rx="8" fill="var(--stage)" class="box"/><text x="962" y="651" font-size="12" class="h2">③ coast 外推 <tspan class="c" font-size="10">on_missing</tspan></text><text x="962" y="668" font-size="10.5" class="s">回归速度外推；置信随丢失衰减</text><text x="962" y="684" font-size="10.5" class="s">到点保持在外推终点（不回扫丢失点）</text><text x="962" y="700" font-size="10.5" class="s">引导中心驱动重捕搜索门</text><text x="962" y="716" font-size="10.5" class="s">GMC 同步补偿预测器</text>
<rect x="950" y="744" width="290" height="50" rx="8" fill="var(--stage)" class="box"/><text x="962" y="763" font-size="12" class="h2">④ 冷启动 / 无输出</text><text x="962" y="779" font-size="10.5" class="s">预算耗尽 → 清历史，等重捕</text>
<text x="950" y="820" font-size="10.5" class="s">恢复后 ≥1 真命中即立即输出</text>
<text x="950" y="836" font-size="10.5" class="s">（主目标豁免 min_hits）</text>

<!-- connector matching->loss -->
<path d="M890,900 C912,900 912,560 928,560" stroke="var(--loss-line)" stroke-width="1.6" fill="none" stroke-dasharray="5 4" marker-end="url(#ad)"/>
<text x="900" y="892" font-size="10" class="s" fill="var(--loss-line)">未命中</text>

<!-- model legend bottom -->
<rect x="930" y="900" width="330" height="120" rx="10" fill="var(--cont)" stroke="var(--bd)"/>
<text x="950" y="924" font-size="13" class="h">模型清单（NPU 推理）</text>
<g font-size="11">
<rect x="950" y="934" width="290" height="20" rx="4" fill="var(--model)" stroke="var(--modelbd)"/><text x="960" y="948" class="s"><tspan class="cw" font-size="10">YOLOv8</tspan> 检测（脸/体/头一体）</text>
<rect x="950" y="958" width="290" height="20" rx="4" fill="var(--model)" stroke="var(--modelbd)"/><text x="960" y="972" class="s"><tspan class="cw" font-size="10">PCB / OSNet</tspan> 行人 ReID（逐候选）</text>
<rect x="950" y="982" width="290" height="20" rx="4" fill="var(--model)" stroke="var(--modelbd)"/><text x="960" y="996" class="s"><tspan class="cw" font-size="10">YOLOv8n-pose</tspan> 姿态（每帧一次）</text>
<rect x="950" y="1006" width="290" height="20" rx="4" fill="var(--model)" stroke="var(--modelbd)"/><text x="960" y="1020" class="s"><tspan class="cw" font-size="10">InsightFace</tspan> 关键点 + 人脸识别</text>
</g>

<text x="40" y="1640" font-size="11" class="s">设计主线：双失败模式（丢目标 / ID 切换）驱动；遮挡/危险期"宁可不匹配，绝不匹配错"，靠 KF+预测器+头部连续维持，待人脸/强空间证据再重捕。</text>
</svg>
